Coordinates
version=1
nRows=4
nColumns=63
inDegrees=yes

Units are S.I. units (second, meters, Newtons, ...)
If the header above contains a line with 'inDegrees', this indicates whether rotational values are in degrees (yes) or radians (no).

endheader
time	pelvis_tilt	pelvis_list	pelvis_rotation	pelvis_tx	pelvis_ty	pelvis_tz	hip_flexion_r	hip_adduction_r	hip_rotation_r	knee_angle_r	knee_angle_r_beta	ankle_angle_r	subtalar_angle_r	mtp_angle_r	hip_flexion_l	hip_adduction_l	hip_rotation_l	knee_angle_l	knee_angle_l_beta	ankle_angle_l	subtalar_angle_l	mtp_angle_l	L5_S1_Flex_Ext	L5_S1_Lat_Bending	L5_S1_axial_rotation	L4_L5_Flex_Ext	L4_L5_Lat_Bending	L4_L5_axial_rotation	L3_L4_Flex_Ext	L3_L4_Lat_Bending	L3_L4_axial_rotation	L2_L3_Flex_Ext	L2_L3_Lat_Bending	L2_L3_axial_rotation	L1_L2_Flex_Ext	L1_L2_Lat_Bending	L1_L2_axial_rotation	L1_T12_Flex_Ext	L1_T12_Lat_Bending	L1_T12_axial_rotation	Abs_r3	Abs_r2	Abs_r1	Abs_t1	Abs_t2	neck_flexion	neck_bending	neck_rotation	arm_flex_r	arm_add_r	arm_rot_r	elbow_flex_r	pro_sup_r	wrist_flex_r	wrist_dev_r	arm_flex_l	arm_add_l	arm_rot_l	elbow_flex_l	pro_sup_l	wrist_flex_l	wrist_dev_l
      1.26315789	      3.19159716	     -8.44915668	     98.63285247	      0.27015241	      0.93935851	      0.43169952	     -3.44970194	      2.84581090	    -15.01126201	      7.88116027	      0.13755220	     24.49046027	      1.26745592	      0.00000000	      0.27481878	     -5.48729593	     -6.45199867	      9.93006250	      0.17331229	     34.49588870	     15.02215658	      0.00000000	      0.05786503	      0.06393517	     -1.65082763	      0.10746115	      0.08503378	     -1.75400436	      0.09506646	      0.15545197	     -1.75400436	      0.06613394	      0.15545197	     -1.44447418	      0.05373347	      0.13037660	     -1.34129745	      0.03306408	      0.09903558	     -1.23812073	      0.41332411	      0.72324743	     -9.18140805	      0.00000000	      0.00000000	     24.08324251	     -1.38056762	    -21.49543279	     64.68922159	    -45.91892373	     -9.44574322	    133.95863313	     84.23540673	    -10.30909792	    -19.21767541	      9.36335361	    -30.41174315	     57.44059495	     87.78226981	     72.30074639	     -1.25687155	     16.42799109
      1.28070175	      3.21188425	     -8.25953032	     98.45114049	      0.27086827	      0.93941809	      0.43095657	     -3.80614542	      2.95103596	    -14.99849224	      7.65274640	      0.13356562	     23.95754926	      1.07309954	      0.00000000	      0.26444144	     -5.59641215	     -6.56051244	     10.51182992	      0.18346604	     35.03771392	     14.76448337	      0.00000000	      0.04691456	      0.07320534	     -1.61591082	      0.08712504	      0.09736310	     -1.71690524	      0.07707594	      0.17799146	     -1.71690524	      0.05361866	      0.17799146	     -1.41392197	      0.04356487	      0.14928033	     -1.31292754	      0.02680698	      0.11339507	     -1.21193311	      0.33510605	      0.82811345	     -8.98721120	      0.00000000	      0.00000000	     23.81224350	     -1.61297624	    -20.91785512	     63.45095466	    -45.71669281	    -10.57516766	    134.97076639	     83.99742822	    -10.40504644	    -19.15278588	      9.11153951	    -30.43444224	     57.33400540	     87.79485815	     72.28013732	     -1.36521403	     16.26493421
      1.29824561	      3.01716587	     -8.29257702	     98.51315867	      0.27195570	      0.93949203	      0.43004083	     -4.13371043	      3.04597731	    -12.87884979	      7.02015299	      0.12252478	     22.77000495	     -2.18205701	      0.00000000	      0.52077863	     -5.50775630	     -6.54645195	     11.13305570	      0.19430848	     35.30538546	     14.64100453	      0.00000000	      0.06774031	      0.01071297	     -1.49065398	      0.12580053	      0.01424825	     -1.58381986	      0.11129055	      0.02604752	     -1.58381986	      0.07742040	      0.02604752	     -1.30432223	      0.06290365	      0.02184589	     -1.21115636	      0.03870681	      0.01659439	     -1.11799049	      0.48386225	      0.12118726	     -8.29057025	      0.00000000	      0.00000000	     23.35766382	     -1.03045923	    -22.64476068	     60.76736906	    -46.29801417	    -14.26772688	    136.53738729	     83.01878103	     -8.91343560	    -16.96778596	      9.98967871	    -30.83176722	     59.07512467	     87.76060494	     72.39369537	     -2.18092915	     15.76572765
      1.31578947	      3.06563554	     -8.22271632	     98.28179423	      0.27245155	      0.93942341	      0.42954672	     -4.33910796	      3.16386044	    -12.29789537	      6.80855431	      0.11883169	     22.21976404	     -2.94406878	      0.00000000	      0.55852315	     -5.58870972	     -6.54768927	     11.50241135	      0.20075495	     35.70891647	     14.25575246	      0.00000000	      0.06984485	      0.01525250	     -1.45124182	      0.12970887	      0.02028582	     -1.54194443	      0.11474811	      0.03708492	     -1.54194443	      0.07982568	      0.03708492	     -1.26983659	      0.06485793	      0.03110289	     -1.17913398	      0.03990935	      0.02362612	     -1.08843136	      0.49889479	      0.17253930	     -8.07137163	      0.00000000	      0.00000000	     23.02389051	     -1.11958689	    -22.53928384	     60.45704289	    -46.46762476	    -15.03766356	    136.42319338	     82.23490862	     -8.23919376	    -17.76044408	      9.84157722	    -30.91532768	     59.29321412	     87.83002380	     72.10483822	     -2.69100324	     15.64462373
